<mxfile host="app.diagrams.net" agent="Mozilla/5.0 (Windows NT 10.0; Win64; x64) AppleWebKit/537.36 (KHTML, like Gecko) Chrome/134.0.0.0 Safari/537.36" version="26.1.3">
  <diagram name="第 1 页" id="BIZ5SmcHytdayvGTLCcN">
    <mxGraphModel dx="880" dy="468" grid="0" gridSize="10" guides="1" tooltips="1" connect="1" arrows="1" fold="1" page="1" pageScale="1" pageWidth="827" pageHeight="1169" math="0" shadow="0">
      <root>
        <mxCell id="0" />
        <mxCell id="1" parent="0" />
        <mxCell id="azOh6tKVTBnGas73PJDn-1" value="用户密码" style="ellipse;whiteSpace=wrap;html=1;" vertex="1" parent="1">
          <mxGeometry x="209" y="279" width="83" height="56" as="geometry" />
        </mxCell>
        <mxCell id="azOh6tKVTBnGas73PJDn-2" value="用户信息" style="rounded=1;whiteSpace=wrap;html=1;" vertex="1" parent="1">
          <mxGeometry x="337" y="515" width="120" height="60" as="geometry" />
        </mxCell>
        <mxCell id="azOh6tKVTBnGas73PJDn-3" value="用户角色" style="ellipse;whiteSpace=wrap;html=1;" vertex="1" parent="1">
          <mxGeometry x="319" y="239" width="83" height="56" as="geometry" />
        </mxCell>
        <mxCell id="azOh6tKVTBnGas73PJDn-4" value="用户电话" style="ellipse;whiteSpace=wrap;html=1;" vertex="1" parent="1">
          <mxGeometry x="445" y="243" width="83" height="56" as="geometry" />
        </mxCell>
        <mxCell id="azOh6tKVTBnGas73PJDn-5" value="用户性别" style="ellipse;whiteSpace=wrap;html=1;" vertex="1" parent="1">
          <mxGeometry x="547" y="269" width="83" height="56" as="geometry" />
        </mxCell>
        <mxCell id="azOh6tKVTBnGas73PJDn-6" value="用户地址" style="ellipse;whiteSpace=wrap;html=1;" vertex="1" parent="1">
          <mxGeometry x="621" y="343" width="83" height="56" as="geometry" />
        </mxCell>
        <mxCell id="azOh6tKVTBnGas73PJDn-7" value="用户名称" style="ellipse;whiteSpace=wrap;html=1;" vertex="1" parent="1">
          <mxGeometry x="126" y="349" width="83" height="56" as="geometry" />
        </mxCell>
        <mxCell id="azOh6tKVTBnGas73PJDn-8" value="" style="endArrow=none;html=1;rounded=0;entryX=1;entryY=1;entryDx=0;entryDy=0;" edge="1" parent="1" target="azOh6tKVTBnGas73PJDn-7">
          <mxGeometry width="50" height="50" relative="1" as="geometry">
            <mxPoint x="394" y="516" as="sourcePoint" />
            <mxPoint x="393" y="390" as="targetPoint" />
          </mxGeometry>
        </mxCell>
        <mxCell id="azOh6tKVTBnGas73PJDn-9" value="" style="endArrow=none;html=1;rounded=0;entryX=0.744;entryY=0.943;entryDx=0;entryDy=0;entryPerimeter=0;" edge="1" parent="1" target="azOh6tKVTBnGas73PJDn-1">
          <mxGeometry width="50" height="50" relative="1" as="geometry">
            <mxPoint x="390" y="512" as="sourcePoint" />
            <mxPoint x="180" y="342" as="targetPoint" />
          </mxGeometry>
        </mxCell>
        <mxCell id="azOh6tKVTBnGas73PJDn-10" value="" style="endArrow=none;html=1;rounded=0;entryX=0.5;entryY=1;entryDx=0;entryDy=0;exitX=0.444;exitY=0.037;exitDx=0;exitDy=0;exitPerimeter=0;" edge="1" parent="1" source="azOh6tKVTBnGas73PJDn-2" target="azOh6tKVTBnGas73PJDn-3">
          <mxGeometry width="50" height="50" relative="1" as="geometry">
            <mxPoint x="394" y="448" as="sourcePoint" />
            <mxPoint x="259" y="267" as="targetPoint" />
          </mxGeometry>
        </mxCell>
        <mxCell id="azOh6tKVTBnGas73PJDn-11" value="" style="endArrow=none;html=1;rounded=0;entryX=0.426;entryY=0.963;entryDx=0;entryDy=0;exitX=0.444;exitY=0.056;exitDx=0;exitDy=0;exitPerimeter=0;entryPerimeter=0;" edge="1" parent="1" source="azOh6tKVTBnGas73PJDn-2" target="azOh6tKVTBnGas73PJDn-4">
          <mxGeometry width="50" height="50" relative="1" as="geometry">
            <mxPoint x="394" y="451" as="sourcePoint" />
            <mxPoint x="361" y="220" as="targetPoint" />
          </mxGeometry>
        </mxCell>
        <mxCell id="azOh6tKVTBnGas73PJDn-12" value="" style="endArrow=none;html=1;rounded=0;entryX=0.5;entryY=1;entryDx=0;entryDy=0;exitX=0.426;exitY=0.037;exitDx=0;exitDy=0;exitPerimeter=0;" edge="1" parent="1" source="azOh6tKVTBnGas73PJDn-2" target="azOh6tKVTBnGas73PJDn-5">
          <mxGeometry width="50" height="50" relative="1" as="geometry">
            <mxPoint x="394" y="452" as="sourcePoint" />
            <mxPoint x="484" y="218" as="targetPoint" />
          </mxGeometry>
        </mxCell>
        <mxCell id="azOh6tKVTBnGas73PJDn-13" value="" style="endArrow=none;html=1;rounded=0;" edge="1" parent="1" target="azOh6tKVTBnGas73PJDn-6">
          <mxGeometry width="50" height="50" relative="1" as="geometry">
            <mxPoint x="389" y="517" as="sourcePoint" />
            <mxPoint x="628" y="270" as="targetPoint" />
          </mxGeometry>
        </mxCell>
        <mxCell id="azOh6tKVTBnGas73PJDn-14" value="用户状态" style="ellipse;whiteSpace=wrap;html=1;" vertex="1" parent="1">
          <mxGeometry x="630" y="432" width="83" height="56" as="geometry" />
        </mxCell>
        <mxCell id="azOh6tKVTBnGas73PJDn-15" value="用户Id" style="ellipse;whiteSpace=wrap;html=1;" vertex="1" parent="1">
          <mxGeometry x="110" y="449" width="83" height="56" as="geometry" />
        </mxCell>
        <mxCell id="azOh6tKVTBnGas73PJDn-16" value="" style="endArrow=none;html=1;rounded=0;exitX=0.5;exitY=0;exitDx=0;exitDy=0;" edge="1" parent="1" source="azOh6tKVTBnGas73PJDn-2">
          <mxGeometry width="50" height="50" relative="1" as="geometry">
            <mxPoint x="402" y="519" as="sourcePoint" />
            <mxPoint x="631" y="466" as="targetPoint" />
          </mxGeometry>
        </mxCell>
        <mxCell id="azOh6tKVTBnGas73PJDn-17" value="" style="endArrow=none;html=1;rounded=0;" edge="1" parent="1" target="azOh6tKVTBnGas73PJDn-15">
          <mxGeometry width="50" height="50" relative="1" as="geometry">
            <mxPoint x="391" y="515" as="sourcePoint" />
            <mxPoint x="209" y="370" as="targetPoint" />
          </mxGeometry>
        </mxCell>
      </root>
    </mxGraphModel>
  </diagram>
</mxfile>
